<svg data-name="Ebene 1" xmlns="http://www.w3.org/2000/svg" viewBox="0 0 48.949 49.115"><path d="M1.245 20.536c.055-.315.115-.638.179-.967a.13.13 0 0 0-.042-.124 2.446 2.446 0 0 0-.262-.196.825.825 0 0 1-.385-.827c.079-.74.472-1.093 1.18-1.057a.122.122 0 0 0 .121-.079l.707-1.875a.134.134 0 0 0-.032-.143c-.294-.281-.548-.543-.475-.975.119-.716.626-1.134 1.367-.955a.174.174 0 0 0 .191-.08l.995-1.704a.122.122 0 0 0-.002-.127c-.21-.338-.439-.607-.301-1.01.14-.41.504-.845.99-.858.213-.005.433.11.629.142a.07.07 0 0 0 .063-.022L7.51 8.193a.157.157 0 0 0 .024-.174c-.12-.24-.287-.643-.167-.913a1.42 1.42 0 0 1 .743-.74c.34-.153.71.028 1.017.214a.117.117 0 0 0 .134-.01l1.555-1.265a.125.125 0 0 0 .039-.136c-.25-.749.034-1.248.855-1.499.36-.109.697.144.97.383.035.03.084.036.124.016l1.8-.925a.1.1 0 0 0 .054-.105c-.13-.797.23-1.25 1.076-1.357.388-.049.709.275.924.568.031.043.086.06.136.045l1.918-.623a.09.09 0 0 0 .064-.084c.021-.84.575-1.226 1.373-1.125.339.043.593.426.735.728.019.04.06.064.104.06l2.013-.221a.087.087 0 0 0 .074-.063c.128-.438.274-.834.773-.93.812-.154 1.179.17 1.406.91.008.027.03.046.058.048l2.033.174a.083.083 0 0 0 .082-.045c.145-.284.262-.507.491-.661.357-.24.95-.106 1.267.101.281.184.347.593.384.92a.11.11 0 0 0 .081.092l1.936.51a.1.1 0 0 0 .104-.035c.25-.321.513-.642.958-.598.386.037.894.252 1.024.663.054.173.07.392.049.658a.151.151 0 0 0 .084.148l1.763.872a.114.114 0 0 0 .133-.022c.28-.281.657-.557 1.064-.419.573.196.992.562.851 1.239-.034.165-.051.28-.05.342 0 .031.015.06.04.078l1.58 1.165c.043.031.1.033.145.005.358-.223.735-.428 1.122-.207.473.271.846.693.649 1.256a8.837 8.837 0 0 1-.15.391.14.14 0 0 0 .027.148l1.33 1.425c.034.037.088.05.136.031.306-.117.699-.266 1.01-.082.347.206.565.495.654.868.076.318-.133.646-.334.924a.14.14 0 0 0-.005.159l1.068 1.648a.115.115 0 0 0 .123.05c.37-.081.794-.133 1.079.173.26.279.396.588.41.926.011.299-.285.622-.508.833a.124.124 0 0 0-.03.136l.728 1.814c.02.05.071.084.126.083.765-.027 1.13.229 1.268.983.1.549-.243.835-.657 1.1a.126.126 0 0 0-.055.13l.385 1.925a.106.106 0 0 0 .085.084c.429.075.844.183 1.001.617.08.22.106.46.08.726-.044.469-.412.634-.826.823a.153.153 0 0 0-.088.142l.025 1.93c.001.05.031.095.077.113.722.287 1.025.623.83 1.434-.124.516-.531.655-.993.735a.14.14 0 0 0-.115.12c-.032.243-.082.56-.15.95-.068.39-.127.706-.178.946a.14.14 0 0 0 .068.15c.407.232.744.5.688 1.027-.09.829-.487 1.044-1.264 1.07a.123.123 0 0 0-.11.082l-.674 1.81a.153.153 0 0 0 .036.162c.326.318.617.597.502 1.053a1.639 1.639 0 0 1-.32.657c-.294.356-.722.318-1.15.244a.106.106 0 0 0-.11.051l-1.01 1.683a.126.126 0 0 0 .009.142c.3.387.528.773.249 1.256-.384.663-.813.782-1.525.5a.133.133 0 0 0-.147.035l-1.295 1.464a.124.124 0 0 0-.018.138c.14.273.31.678.198.955-.126.314-.359.559-.697.735-.37.192-.752 0-1.074-.2a.115.115 0 0 0-.133.005l-1.56 1.194a.14.14 0 0 0-.048.152c.095.329.182.707.004.981-.21.321-.513.52-.908.598-.355.068-.675-.205-.925-.417a.125.125 0 0 0-.138-.017l-1.73.895a.14.14 0 0 0-.077.13c.008.167.011.307.01.42-.004.596-.497.867-1.033.964-.44.077-.725-.242-.987-.573a.128.128 0 0 0-.14-.044l-1.878.566a.099.099 0 0 0-.064.06 1.89 1.89 0 0 0-.068.34c-.094.684-.612.888-1.218.879-.43-.006-.693-.393-.862-.752a.114.114 0 0 0-.117-.064l-1.954.228a.151.151 0 0 0-.129.11c-.07.258-.159.459-.267.603-.261.344-.81.376-1.188.281-.433-.109-.573-.499-.7-.885a.1.1 0 0 0-.086-.069l-1.995-.17a.11.11 0 0 0-.108.06c-.145.294-.344.657-.67.736-.368.089-.973.016-1.227-.33-.164-.223-.2-.472-.241-.79a.083.083 0 0 0-.062-.068l-1.973-.52a.067.067 0 0 0-.07.025c-.464.621-.918.803-1.63.384-.439-.257-.443-.68-.416-1.135a.087.087 0 0 0-.049-.084l-1.821-.885a.105.105 0 0 0-.12.02c-.234.237-.603.513-.936.44-.785-.173-1.176-.724-.914-1.522a.09.09 0 0 0-.032-.1l-1.597-1.232a.122.122 0 0 0-.143-.004c-.301.203-.712.401-1.062.225-.76-.386-.946-.933-.556-1.64a.1.1 0 0 0-.015-.117l-1.385-1.476a.112.112 0 0 0-.122-.027c-.338.133-.741.258-1.043.034-.688-.512-.788-1.078-.301-1.698a.125.125 0 0 0 .01-.142l-1.04-1.714a.117.117 0 0 0-.122-.054c-.353.07-.761.117-1.03-.141a1.415 1.415 0 0 1-.45-.947c-.023-.294.27-.618.463-.804a.157.157 0 0 0 .036-.171l-.764-1.852a.07.07 0 0 0-.052-.04c-.194-.037-.441-.003-.64-.08-.453-.174-.65-.706-.644-1.138.006-.429.313-.604.624-.852a.122.122 0 0 0 .044-.118l-.364-1.939a.174.174 0 0 0-.153-.14c-.758-.081-1.095-.645-.967-1.36.077-.432.405-.592.776-.759a.134.134 0 0 0 .078-.124l-.035-2.002c0-.054-.036-.101-.087-.117-.68-.203-.931-.667-.756-1.391a.824.824 0 0 1 .64-.65c.138-.035.242-.067.313-.096a.13.13 0 0 0 .081-.103c.05-.331.103-.655.157-.97zm45.815 6.155a22.914 22.914 0 0 0-1.192-9.717 22.89 22.89 0 0 0-2.124-4.421c-2.071-3.344-4.765-6.072-8.21-7.997-2.587-1.447-5.32-2.347-8.2-2.698C20.254.993 13.216 3.403 8.16 8.502A21.445 21.445 0 0 0 5.418 11.9c-3.091 4.792-4.292 10.697-3.396 16.33a22.465 22.465 0 0 0 3.505 8.928c2.076 3.093 4.733 5.533 7.972 7.319 2.757 1.52 5.867 2.492 9.044 2.74 7.842.608 15.405-2.754 20.114-9.07 2.509-3.365 3.977-7.184 4.403-11.456z"/><path d="M40.037 35.284a3.898 3.898 0 0 0-1.187.457c-.231.105-.472.197-.722.276-.416.133-.658.215-.728.248-.297.14-.607.273-.933.402a.044.044 0 0 1-.057-.023.042.042 0 0 1-.003-.017l.002-.13c.06-.802.046-1.6-.039-2.396l-.025-.847a.104.104 0 0 0-.14-.096l-1.253.465a.074.074 0 0 1-.098-.053.282.282 0 0 1 .02-.135.673.673 0 0 0 .032-.176c.027-.682.014-1.367-.038-2.057l-.003-1.134c0-.007.003-.014.007-.019.026-.027.05-.019.073.025l1.256.877 1.816 1.363a.011.011 0 0 1 .003.013c-.007.015-.016.017-.027.008.142.099.289.183.44.253.021.01.04.021.06.035l2.842 2.134a.023.023 0 0 1-.006.04l-1.292.487zM43.914 25.341a6.715 6.715 0 0 0-1.383-.982l-.934-.675a.056.056 0 0 0-.078.014.058.058 0 0 0-.01.032l-.004 1.12c0 .042.028.08.07.09.754.203 1.175.658 1.26 1.366.055.457-.139.955-.255 1.461a.048.048 0 0 1-.09.012l-.499-.88a.056.056 0 0 0-.099.002c-.173.34-.386.646-.64.916a.053.053 0 0 1-.081-.004l-.658-.914a.069.069 0 0 0-.115.003l-.304.482a.075.075 0 0 0-.01.016l-.15.4a.044.044 0 0 1-.085-.005l-.351-1.348a.155.155 0 0 1-.003-.057 1.48 1.48 0 0 1 .53-1.037c.266-.22.543-.359.83-.415a.068.068 0 0 0 .056-.067l.004-1.14a.034.034 0 0 0-.052-.029l-.85.503a.086.086 0 0 0-.013.01l-1.617 1.178a.522.522 0 0 1 .003-.245c.027-.125.04-.204.042-.24.024-.5.101-.993.231-1.479a.353.353 0 0 1 .044-.097c.324-.496.829-.747 1.515-.753.59-.01 1.188-.017 1.794-.023.48-.005.808.03.985.103.317.13.572.342.764.634.107.162.184.499.23 1.008.036.39.07.74.104 1.05a.058.058 0 0 1-.09.053l-.09-.063zM32.19 42.111a4.71 4.71 0 0 0-.445.076c-.64.142-1.13-.06-1.469-.606-.07-.112-.1-.375-.093-.79a.774.774 0 0 0-.147-.522 11.58 11.58 0 0 0-.321-.455c-.412-.716-.232-1.337.538-1.865.139-.083.307-.143.505-.181a.07.07 0 0 1 .077.042l.31.813a.464.464 0 0 1 .015.104.47.47 0 0 0 .03.135c.09.255.282.781.577 1.58.03.077.112.336.247.775.069.226.159.483.27.773.018.047-.014.088-.094.121zM27.611 40.983l-.008.024a.01.01 0 1 1-.022-.004c.008-.48.24-.829.693-1.046a.325.325 0 0 1 .099-.029c.619-.068 1.022.178 1.209.74.08.24.053.495-.085.76-.063.122-.269.277-.619.465a.295.295 0 0 1-.102.032c-.575.063-1.159-.323-1.151-.94a.008.008 0 0 0-.014-.002zM25.883 38.77c0 .002.001.004.003.004.138-.218.305-.346.501-.383.44-.085.806.048 1.098.399.297.354.327.733.09 1.134a.061.061 0 0 1-.102.007 7.829 7.829 0 0 1-.348-.485c-.33-.498-.83-.338-1.312-.217a.099.099 0 0 1-.119-.123c.033-.11.092-.228.179-.352M18.316 41.764c.32-.23.76-.628.779-1.063.676.393 1.495.573 2.1-.03a.098.098 0 0 1 .092-.025l.363.096a.055.055 0 0 1 .041.059l-.167 1.27a.072.072 0 0 1-.097.058l-.697-.263a.06.06 0 0 0-.076.074c.14.413.016.664-.37.753-.204.047-.516.024-.935-.07a.082.082 0 0 0-.094.05l-.059.159a.106.106 0 0 1-.196.005l-.112-.25a.105.105 0 0 0-.054-.053l-.893-.378a.053.053 0 0 1-.012-.09l.387-.302zm.347.482a.146.146 0 1 0 .06-.286.146.146 0 0 0-.06.286z"/><path d="M18.973 40.615c-.036.407-.465.786-.752 1.044l-.472.378a.108.108 0 0 0-.004.165c.16.14.371.266.636.377a.033.033 0 0 1 .016.042.03.03 0 0 1-.023.018c-.434.07-1.173-.004-1.51-.391a1.627 1.627 0 0 1-.422-1.024c-.034-.815.159-1.498.579-2.05.301-.394.606-.677.912-.846.776-.43 1.901.04 2.319.796.033.06.055.124.065.19.008.054.055.092.108.089l1.043-.058a.046.046 0 0 1 .048.052 3.08 3.08 0 0 1-.367 1.128.325.325 0 0 1-.062.08c-.327.307-.74.398-1.24.273a2.467 2.467 0 0 1-.848-.406.043.043 0 0 0-.065.052l.039.091zM8.55 35.485l-.415-.862a.095.095 0 0 1 .034-.121l.235-.152a.086.086 0 0 1 .124.033l.399.776a.032.032 0 0 0 .042.015.03.03 0 0 0 .015-.015l.764-1.545a.08.08 0 0 1 .1-.04l3.041 1.103 1.273.464c.036.013.06.05.056.09l-.024.281a.059.059 0 0 1-.078.05l-1.553-.585a.147.147 0 0 0-.11.003c-.279.121-.488.343-.627.665a.058.058 0 0 1-.088.025 3.27 3.27 0 0 0-1.587-.607.09.09 0 0 1-.079-.079l-.063-.577a.05.05 0 0 0-.095-.017l-.907 1.837a.04.04 0 0 1-.073 0l-.383-.742z"/><path d="m10.374 35.453.855.322a.045.045 0 0 1 .028.058l-.103.267a.045.045 0 0 0 .034.06l1.528.327a.045.045 0 0 1 .033.03l.043.135a.045.045 0 0 1-.046.06l-3.063-.263a.045.045 0 0 1-.032-.071l.671-.91a.045.045 0 0 1 .052-.015zM11.948 33.882a.04.04 0 0 1-.05.053l-.337-.127a.26.26 0 0 1-.149-.146l-.328-.815a.233.233 0 0 0-.419-.027l-.284.507a.072.072 0 0 1-.09.033l-.276-.104a.062.062 0 0 1-.033-.089l.679-1.21a.091.091 0 0 1 .101-.045c.148.035.256.076.325.121a.23.23 0 0 1 .087.102l.774 1.747z"/><circle cx="9.062" cy="33.571" r=".428"/><path d="M7.815 26.105h-.65l-.258-.672H5.725l-.244.672h-.633L6 23.148h.63l1.185 2.957zm-1.1-1.17-.407-1.097-.399 1.097h.807zM8.127 23.148h.597v1.601c0 .255.008.42.022.494a.478.478 0 0 0 .183.292c.096.073.227.11.394.11.17 0 .297-.035.383-.104a.41.41 0 0 0 .155-.255c.018-.101.027-.268.027-.502v-1.636h.597v1.553c0 .355-.016.606-.049.752a.835.835 0 0 1-.178.371.902.902 0 0 1-.348.241c-.145.06-.335.09-.569.09-.282 0-.496-.033-.642-.098a.917.917 0 0 1-.346-.254.812.812 0 0 1-.167-.328c-.04-.17-.059-.42-.059-.75v-1.577zM11.78 26.105v-2.457h-.878v-.5h2.35v.5h-.876v2.457h-.597zM13.441 24.645c0-.302.045-.554.135-.759.068-.15.16-.285.276-.405.116-.12.243-.209.382-.266.184-.078.396-.117.637-.117.436 0 .784.135 1.046.405.261.27.392.646.392 1.127 0 .478-.13.851-.39 1.12-.259.27-.606.405-1.04.405-.44 0-.79-.134-1.049-.402-.259-.268-.389-.638-.389-1.108zm.615-.02c0 .334.078.588.232.76s.351.26.589.26.433-.086.586-.257c.152-.172.229-.429.229-.772 0-.338-.075-.591-.223-.758a.754.754 0 0 0-.592-.25.76.76 0 0 0-.595.253c-.15.169-.226.423-.226.763zM9.83 11.563l1.132.833c.256.188.436.351.54.489.142.185.226.393.255.623.029.23.004.467-.073.712a2.812 2.812 0 0 1-.434.8 2.503 2.503 0 0 1-.575.583 1.681 1.681 0 0 1-.727.3c-.185.025-.39 0-.616-.076a2.328 2.328 0 0 1-.595-.34L7.57 14.63l2.26-3.066zm.238.975L8.57 14.569l.462.34c.173.128.305.21.396.247a.71.71 0 0 0 .345.057c.11-.011.237-.07.38-.177.143-.106.302-.278.476-.515.175-.237.288-.435.34-.593a.872.872 0 0 0 .043-.426.732.732 0 0 0-.18-.356c-.073-.083-.235-.217-.487-.403l-.278-.205zM10.667 16.91l2.26-3.067L15.2 15.52l-.382.518-1.655-1.219-.501.68 1.54 1.135-.381.516-1.54-1.134-.615.835 1.714 1.262-.38.517-2.334-1.719z"/><g><path d="m16.432 6.12 3.623-1.178.873 2.686-.613.2-.635-1.955-.804.26.591 1.82-.61.198-.591-1.819-.986.32.658 2.024-.61.199-.896-2.756zM17.531 9.502l3.623-1.177.231.712-1.937 2.269 2.42-.786.22.68-3.623 1.176-.238-.733 1.887-2.229-2.362.768-.22-.68z"/></g><g><path d="m38.897 11.594 2.239 3.082-2.113 1.535-.378-.521 1.49-1.083-.53-.73-1.286.935-.38-.521 1.287-.935-.951-1.31.622-.452zM36.27 13.504l2.238 3.081-1.31.952c-.329.239-.588.385-.778.438a.876.876 0 0 1-.572-.035 1.097 1.097 0 0 1-.488-.387 1.017 1.017 0 0 1-.212-.721c.026-.25.16-.492.403-.728-.192.02-.366.014-.521-.017a4.359 4.359 0 0 1-.718-.243l-.813-.327.744-.541.937.344c.334.123.553.195.657.214.104.02.198.017.28-.007a1.27 1.27 0 0 0 .339-.193l.126-.092-.935-1.286.622-.452zm.67 2.23-.461.335c-.299.216-.476.364-.532.444a.414.414 0 0 0-.08.257.497.497 0 0 0 .105.277.458.458 0 0 0 .266.19c.101.024.209.008.322-.049.056-.03.21-.136.462-.32l.485-.352-.568-.782z"/></g><g><path d="m28.459 5.577 3.622 1.177-.872 2.686-.613-.199.635-1.955-.803-.26-.591 1.818-.61-.198.59-1.819-.986-.32-.657 2.024-.61-.199.895-2.755zM28.6 9.15l-.161.734c-.253-.034-.457-.005-.611.09-.155.095-.268.253-.34.475-.077.236-.085.43-.024.582.06.151.158.25.291.292a.347.347 0 0 0 .243-.004.634.634 0 0 0 .243-.212c.057-.076.174-.254.348-.534.225-.361.434-.597.627-.71a.992.992 0 0 1 .837-.096.98.98 0 0 1 .467.325c.127.157.2.347.22.572.02.224-.015.475-.106.753-.147.455-.358.765-.632.93-.274.165-.58.2-.916.103l.205-.742c.197.029.353.005.468-.071.115-.077.205-.218.272-.424.07-.212.08-.393.032-.542a.277.277 0 0 0-.187-.189.293.293 0 0 0-.256.037c-.107.068-.26.265-.46.594-.2.329-.372.564-.518.705s-.31.235-.498.28a1.134 1.134 0 0 1-.624-.042 1.122 1.122 0 0 1-.772-.983c-.02-.24.022-.517.124-.832.149-.458.369-.775.66-.952.292-.176.648-.223 1.069-.139z"/></g></svg>