<svg data-name="Ebene 1" xmlns="http://www.w3.org/2000/svg" viewBox="0 0 41.218 49.053"><path d="M20.607 0c5.573 0 10.296 4.035 11.71 9.32 1.193 4.473.327 8.612-2.597 12.417a7.173 7.173 0 0 1-1.914 1.75.242.242 0 0 0-.078.33.231.231 0 0 0 .126.099c5.684 1.928 10.734 6.42 12.504 12.21.721 2.37.989 4.221.803 5.555-.923 6.579-15.846 7.372-20.554 7.372-4.704 0-19.626-.793-20.55-7.367-.186-1.334.082-3.187.803-5.56 1.765-5.79 6.815-10.282 12.5-12.21a.234.234 0 0 0 .148-.3.245.245 0 0 0-.1-.128 7.173 7.173 0 0 1-1.915-1.75c-2.924-3.806-3.79-7.944-2.597-12.413C10.31 4.035 15.033 0 20.606 0zm-.87 2.684v43.782c0 .14.115.255.259.255 5.165.005 10.344-.39 15.067-2.203 1.404-.543 3.823-1.668 3.79-3.356-.125-5.997-3.819-11.206-9.138-13.913-.696-.353-1.832-.836-3.41-1.448a1.23 1.23 0 0 1-.413-.264c-.843-.815-1.004-1.772-.481-2.871a1.34 1.34 0 0 1 .332-.433c1.148-1.013 1.83-1.653 2.049-1.92 2.686-3.282 3.364-6.966 2.034-11.05-1.361-4.18-5.449-7.262-9.787-6.907a.327.327 0 0 0-.303.328z"/></svg>