<svg data-name="Ebene 1" xmlns="http://www.w3.org/2000/svg" viewBox="0 0 44.595 29.695"><path d="M44.595 26.695a3 3 0 0 1-2.999 3H3a3 3 0 0 1-2.999-3V3A3 3 0 0 1 3 0h38.596a3 3 0 0 1 3 3v23.695zm-5.765-12.59h3.674c.129 0 .234-.107.234-.238-.013-5.66-.012-9.075.003-10.247.008-.616-.092-1.06-.298-1.333-.228-.299-.655-.448-1.284-.448-9.073.012-15.097.014-18.072.003a.153.153 0 0 0-.153.154V5.81a.303.303 0 0 1-.326.303 1.72 1.72 0 0 0-.701.092.26.26 0 0 1-.345-.246V2.011a.165.165 0 0 0-.164-.165H2.958c-.608 0-1.1.494-1.1 1.104v10.955c0 .106.086.191.191.191h3.865c.14 0 .253.114.253.253v.832a.287.287 0 0 1-.287.287H2.057a.2.2 0 0 0-.2.199c0 4.175.002 7.788.005 10.837.003 1.501.996 1.333 2.103 1.333 3.771.002 9.575.004 17.41.004a.184.184 0 0 0 .183-.184v-4.451c0-.102.084-.184.188-.184h.996c.104 0 .188.084.188.187v4.425c0 .114.092.207.207.207 5.763-.003 11.833-.002 18.21.003.738.003 1.189-.267 1.352-.808a.666.666 0 0 0 .035-.21V15.723c0-.122-.1-.222-.222-.222h-3.647a.215.215 0 0 1-.215-.214V14.28c0-.097.081-.176.18-.176z"/><path d="M22.267 10.224c1.348 0 .908 2.578.923 3.516.003.02.02.047.054.08s.06.05.08.05c.935.02 3.513-.42 3.513.927 0 1.349-2.578.908-3.517.927-.02 0-.047.017-.08.05s-.05.06-.05.08c-.019.94.422 3.517-.927 3.517-1.348-.004-.908-2.578-.927-3.516 0-.02-.016-.048-.05-.08s-.06-.05-.08-.05c-.938-.02-3.516.417-3.513-.931 0-1.349 2.575-.908 3.513-.924.02-.002.047-.02.08-.053s.052-.059.054-.077c.015-.938-.421-3.516.927-3.516z"/></svg>