<svg data-name="Ebene 2" xmlns="http://www.w3.org/2000/svg" viewBox="0 0 48.367 49.715"><circle cx="25.301" cy="1.203" r="1.203"/><ellipse cx="19.405" cy="1.895" rx="1.273" ry="1.116" transform="rotate(-11.3 19.405 1.895)"/><ellipse cx="28.884" cy="1.921" rx="1.099" ry="1.286" transform="rotate(-76.8 28.884 1.921)"/><ellipse cx="15.117" cy="4.141" rx="1.268" ry="1.129" transform="rotate(-33.2 15.117 4.141)"/><ellipse cx="33.137" cy="4.128" rx="1.099" ry="1.264" transform="rotate(-53.2 33.137 4.128)"/><path d="M33.654 10.314a56.884 56.884 0 0 1-1.72-1.668c-1.727-1.752-3.663-2.822-5.809-3.21-4.696-.847-9.022 1.247-11.486 5.248-.984 1.598-1.545 3.14-1.68 4.626-.38 4.2.964 7.76 4.03 10.682.18.171.206.325.079.46-1.796-1.349-3.073-3.013-3.832-4.99-.724-1.895-.93-3.967-.617-6.217.635-4.544 3.072-7.783 7.312-9.718 2.134-.976 4.483-1.124 7.046-.443 3.096.823 5.321 2.566 6.677 5.23z"/><path d="M33.654 10.314c2.12 3.707 2.445 7.432.977 11.174a9.634 9.634 0 0 1-1.55 2.597 32.63 32.63 0 0 1-2.03 2.264.252.252 0 0 0 .083.408c4.7 1.946 8.597 4.891 10.765 9.496 1.112 2.363 1.578 4.764 1.399 7.203a2.674 2.674 0 0 1-.752 1.664c-1.474 1.511-3.37 2.54-5.686 3.084-7.721 1.816-15.487 1.995-23.298.539.203.087.324.094.365.021a.174.174 0 0 0-.113-.247 27.66 27.66 0 0 1-7.65-3.158c-.75-.629-1.157-1.153-1.22-1.573a14.181 14.181 0 0 1-.144-2.98c.003-.084.045-.15.126-.2a.207.207 0 0 0 .1-.139c.449-2.754 1.517-5.154 3.206-7.198 1.428-1.726 3.18-3.302 5.256-4.727.243-.168.611-.321 1.104-.46.146-.043.283-.11.404-.2.492-.362 1.089-.676 1.79-.943a.807.807 0 0 0 .217-.121c.315-.244.337-.365.065-.365.127-.136.101-.29-.078-.46-3.067-2.923-4.411-6.484-4.032-10.683.136-1.486.697-3.028 1.681-4.626 2.464-4.001 6.79-6.095 11.486-5.248 2.146.388 4.082 1.458 5.808 3.21a56.884 56.884 0 0 0 1.72 1.668zm-14.28-1.868c-3.698 2.636-5.118 6.237-4.261 10.804.402 2.714 1.945 4.845 4.626 6.395.171.81.123 1.487-.143 2.029-.208.42-.749.805-1.62 1.155a35.043 35.043 0 0 0-3.15 1.442c-2.902 1.18-4.94 3.186-6.112 6.021a13.399 13.399 0 0 0-1.65 6.434c0 .165.041.325.12.465 1.083 1.903 4.67 3.062 6.695 3.445 5.56 1.06 11.29 1.245 17.186.556 2.958-.348 8.34-1.36 10.06-3.97.08-.12.12-.26.118-.405-.06-2.705-.707-5.039-1.938-7.003-2.244-3.576-5.537-5.974-9.878-7.193-1.098-1.359-1.133-2.472-.104-3.341 1.59-1.341 2.557-2.376 2.901-3.106.153-.322.174-.717.378-.912a1.01 1.01 0 0 0 .23-.365c.131-.333.177-.68.14-1.039.654-2.198.544-4.367-.33-6.507-.342-.834-.691-1.661-1.047-2.48a.656.656 0 0 0-.179-.244L28.766 8.3l-1.563-.89a1.02 1.02 0 0 0-.261-.11c-2.806-.776-5.329-.393-7.568 1.147z"/><ellipse cx="36.512" cy="7.53" rx="1.077" ry="1.277" transform="rotate(-24.5 36.512 7.53)"/><ellipse cx="11.829" cy="7.565" rx="1.264" ry="1.121" transform="rotate(-54.5 11.829 7.565)"/><path d="M28.767 8.299a38.23 38.23 0 0 0-2.316-.626 10.352 10.352 0 0 0-4.848.004 1.459 1.459 0 0 0-.304.105 9.26 9.26 0 0 1-1.925.664c2.24-1.54 4.762-1.923 7.568-1.146.09.023.177.06.26.108l1.565.89z"/><ellipse cx="9.657" cy="11.817" rx="1.268" ry="1.108" transform="rotate(-73.8 9.657 11.817)"/><ellipse cx="38.658" cy="11.813" rx="1.112" ry="1.255" transform="rotate(-15.4 38.658 11.813)"/><ellipse cx="8.927" cy="16.548" rx="1.103" ry="1.282" transform="rotate(-3 8.927 16.548)"/><ellipse cx="39.405" cy="16.548" rx="1.234" ry="1.099" transform="rotate(-84.6 39.405 16.548)"/><ellipse cx="38.754" cy="21.031" rx="1.26" ry="1.073" transform="rotate(-71.9 38.754 21.031)"/><ellipse cx="9.565" cy="21.057" rx="1.06" ry="1.247" transform="rotate(-8.8 9.565 21.057)"/><path d="M32.972 19.858c.037.36-.009.706-.14 1.039a1.01 1.01 0 0 1-.23.365c-.204.195-.225.59-.378.912-.344.73-1.311 1.765-2.901 3.106-1.029.869-.994 1.982.104 3.34-1.816-1.358-1.703-2.801.339-4.33 1.161-.872 2.23-2.35 3.206-4.432zM12.48 24.22c.622 1.169.105 2.485-1.45 2.246-1.495-.235-1.495-3.345.899-2.69a.906.906 0 0 1 .551.444zm-.24.493c-.236-.457-.82-.623-1.307-.372s-.69.824-.454 1.28c.236.456.82.623 1.307.372s.69-.824.454-1.28z"/><ellipse cx="36.951" cy="25.08" rx="1.112" ry="1.229" transform="rotate(-7.5 36.95 25.08)"/><ellipse cx="11.36" cy="25.167" rx=".99" ry=".93" transform="rotate(-27.3 11.36 25.167)"/><ellipse cx="7.298" cy="28.23" rx="1.29" ry="1.134" transform="rotate(-46.2 7.298 28.23)"/><ellipse cx="41.034" cy="28.273" rx="1.099" ry="1.268" transform="rotate(-49.5 41.034 28.273)"/><ellipse cx="3.935" cy="32.326" rx="1.268" ry="1.09" transform="rotate(-59.1 3.935 32.326)"/><ellipse cx="44.362" cy="32.3" rx="1.099" ry="1.26" transform="rotate(-34.4 44.362 32.3)"/><ellipse cx="1.733" cy="37.035" rx="1.047" ry="1.208" transform="rotate(-1.5 1.733 37.035)"/><ellipse cx="46.525" cy="37.061" rx="1.073" ry="1.26" transform="rotate(-17.8 46.525 37.061)"/><ellipse cx="47.29" cy="42.148" rx="1.156" ry="1.077" transform="rotate(-89.9 47.29 42.148)"/><path d="M1.859 42.895a.391.391 0 0 1-.426.357L.9 43.208a.99.99 0 0 1-.895-1.081l.013-.148a.99.99 0 0 1 1.064-.912l.539.047a.391.391 0 0 1 .356.422l-.117 1.36zM13.562 48.743c-2.902-.325-5.368-1.453-7.398-3.384a27.66 27.66 0 0 0 7.65 3.158.174.174 0 0 1 .113.247c-.04.073-.162.066-.365-.021z"/></svg>