<svg data-name="Ebene 2" xmlns="http://www.w3.org/2000/svg" viewBox="0 0 47.207 48.308"><circle cx="28.558" cy="1.314" r="1.314"/><circle cx="5.604" cy="19.731" r="1.314"/><rect x="2.365" y="27.435" width="7.125" height="2.421" rx="1.116" ry="1.116"/><rect x="4.341" y="22.889" width="4.863" height="2.396" rx="1.13" ry="1.13"/><rect x="3.022" y="31.998" width="36.178" height="2.393" rx="1.196" ry="1.196"/><rect x="2.365" y="36.604" width="40.037" height="2.355" rx="1.178" ry="1.178"/><rect x="2.346" y="41.04" width="42.553" height="2.655" rx="1.328" ry="1.328"/><rect y="45.666" width="47.207" height="2.642" rx="1.321" ry="1.321"/><rect x="20.383" y="27.435" width="18.983" height="2.421" rx="1.211" ry="1.211"/><rect x="24.621" y="22.889" width="14.825" height="2.329" rx="1.164" ry="1.164"/><rect x="26.299" y="18.468" width="14.419" height="2.525" rx="1.263" ry="1.263"/><rect x="26.299" y="13.767" width="12.242" height="2.45" rx="1.225" ry="1.225"/><rect x="25.111" y="9.118" width="10.834" height="2.483" rx="1.241" ry="1.241"/><rect x="26.299" y="4.54" width="8.248" height="2.27" rx="1.135" ry="1.135"/></svg>