<svg data-name="Ebene 2" xmlns="http://www.w3.org/2000/svg" viewBox="0 0 47.202 44.526"><rect y="41.71" width="13.086" height="2.588" rx=".781" ry=".781"/><rect x=".749" y="37.949" width="11.493" height="2.022" rx=".781" ry=".781"/><rect x="1.17" y="33.841" width="11.525" height="2.022" rx=".781" ry=".781"/><rect x="1.987" y="29.56" width="10.694" height="2.022" rx=".781" ry=".781"/><rect x="2.085" y="25.153" width="6.009" height="2.208" rx=".781" ry=".781"/><rect x="9.461" y="25.153" width="3.004" height="2.208" rx=".781" ry=".781"/><rect x="1.663" y="17.002" width="4.977" height="2.022" rx=".781" ry=".781"/><rect x="1.97" y="12.601" width="4.825" height="2.279" rx=".781" ry=".781"/><rect x="2.718" y="8.487" width="4.246" height="2.084" rx=".781" ry=".781"/><rect x="3.126" y="4.297" width="3.379" height="2.084" rx=".781" ry=".781"/><rect x="3.739" width="2.614" height="2.27" rx=".781" ry=".781"/><rect x="2.091" y="21.187" width="4.785" height="2.022" rx=".781" ry=".781"/><rect x="9.693" y="21.317" width="2.689" height="2.022" rx=".781" ry=".781"/><ellipse cx="11.343" cy="18.175" rx="1.292" ry="1.173"/><rect x="17.058" y="41.759" width="13.086" height="2.588" rx=".781" ry=".781"/><rect x="17.807" y="37.998" width="11.493" height="2.022" rx=".781" ry=".781"/><rect x="18.228" y="33.89" width="11.525" height="2.022" rx=".781" ry=".781"/><rect x="19.045" y="29.609" width="10.694" height="2.022" rx=".781" ry=".781"/><rect x="19.143" y="25.202" width="6.009" height="2.208" rx=".781" ry=".781"/><rect x="26.518" y="25.202" width="3.004" height="2.208" rx=".781" ry=".781"/><rect x="18.721" y="17.051" width="4.977" height="2.022" rx=".781" ry=".781"/><rect x="19.028" y="12.65" width="4.825" height="2.279" rx=".781" ry=".781"/><rect x="19.776" y="8.536" width="4.246" height="2.084" rx=".781" ry=".781"/><rect x="20.184" y="4.346" width="3.379" height="2.084" rx=".781" ry=".781"/><rect x="20.797" y=".049" width="2.614" height="2.27" rx=".781" ry=".781"/><rect x="19.149" y="21.236" width="4.785" height="2.022" rx=".781" ry=".781"/><rect x="26.751" y="21.366" width="2.689" height="2.022" rx=".781" ry=".781"/><ellipse cx="28.401" cy="18.224" rx="1.292" ry="1.173"/><rect x="34.116" y="41.937" width="13.086" height="2.588" rx=".781" ry=".781"/><rect x="34.865" y="38.177" width="11.493" height="2.022" rx=".781" ry=".781"/><rect x="35.286" y="34.068" width="11.525" height="2.022" rx=".781" ry=".781"/><rect x="36.103" y="29.788" width="10.694" height="2.022" rx=".781" ry=".781"/><rect x="36.2" y="25.381" width="6.009" height="2.208" rx=".781" ry=".781"/><rect x="43.576" y="25.381" width="3.004" height="2.208" rx=".781" ry=".781"/><rect x="35.779" y="17.23" width="4.977" height="2.022" rx=".781" ry=".781"/><rect x="36.085" y="12.828" width="4.825" height="2.279" rx=".781" ry=".781"/><rect x="36.834" y="8.714" width="4.246" height="2.084" rx=".781" ry=".781"/><rect x="37.242" y="4.524" width="3.379" height="2.084" rx=".781" ry=".781"/><rect x="37.854" y=".228" width="2.614" height="2.27" rx=".781" ry=".781"/><rect x="36.207" y="21.415" width="4.785" height="2.022" rx=".781" ry=".781"/><rect x="43.809" y="21.544" width="2.689" height="2.022" rx=".781" ry=".781"/><ellipse cx="45.459" cy="18.403" rx="1.292" ry="1.173"/></svg>